HIERARCHY
ROOT Hips
{
	OFFSET -3.958830 18.904000 13.208200
	CHANNELS 6 Xposition Yposition Zposition Zrotation Yrotation Xrotation 
	JOINT LHipJoint
	{
		OFFSET 0.000000 0.000000 0.000000
		CHANNELS 3 Zrotation Yrotation Xrotation
		JOINT LeftUpLeg
		{
			OFFSET 1.800000 -1.400000 0.085000
			CHANNELS 3 Zrotation Yrotation Xrotation
			JOINT LeftLeg
			{
				OFFSET 2.215000 -6.000000 0.000000
				CHANNELS 3 Zrotation Yrotation Xrotation
				JOINT LeftFoot
				{
					OFFSET 2.500000 -6.900000 0.000000
					CHANNELS 3 Zrotation Yrotation Xrotation
					JOINT LeftToeBase
					{
						OFFSET 0.200000 -0.500000 1.950000
						CHANNELS 3 Zrotation Yrotation Xrotation
						End Site
						{
							OFFSET 0.000000 0.000000 0.000000
						}
					}
				}
			}
		}
	}
	JOINT RHipJoint
	{
		OFFSET 0.000000 0.000000 0.000000
		CHANNELS 3 Zrotation Yrotation Xrotation
		JOINT RightUpLeg
		{
			OFFSET -1.800000 -1.400000 0.085000
			CHANNELS 3 Zrotation Yrotation Xrotation
			JOINT RightLeg
			{
				OFFSET -2.215000 -6.000000 0.000000
				CHANNELS 3 Zrotation Yrotation Xrotation
				JOINT RightFoot
				{
					OFFSET -2.500000 -6.900000 0.000000
					CHANNELS 3 Zrotation Yrotation Xrotation
					JOINT RightToeBase
					{
						OFFSET -0.200000 -0.500000 1.950000
						CHANNELS 3 Zrotation Yrotation Xrotation
						End Site
						{
							OFFSET 0.000000 0.000000 0.000000
						}
					}
				}
			}
		}
	}
	JOINT LowerBack
	{
		OFFSET 0.000000 0.000000 0.000000
		CHANNELS 3 Zrotation Yrotation Xrotation
		JOINT Spine
		{
			OFFSET -0.087000 1.940000 -0.288900
			CHANNELS 3 Zrotation Yrotation Xrotation
			JOINT Spine1
			{
				OFFSET 0.000000 1.950000 0.060000
				CHANNELS 3 Zrotation Yrotation Xrotation
				JOINT Neck
				{
					OFFSET 0.000000 0.000000 0.000000
					CHANNELS 3 Zrotation Yrotation Xrotation
					JOINT Neck1
					{
						OFFSET 0.000000 1.600000 0.340000
						CHANNELS 3 Zrotation Yrotation Xrotation
						JOINT Head
						{
							OFFSET 0.000000 1.667000 -0.240000
							CHANNELS 3 Zrotation Yrotation Xrotation
							End Site
							{
								OFFSET 0.000000 0.000000 0.000000
							}
						}
					}
				}
				JOINT LeftShoulder
				{
					OFFSET 0.000000 0.000000 0.000000
					CHANNELS 3 Zrotation Yrotation Xrotation
					JOINT LeftArm
					{
						OFFSET 2.700000 1.550000 -0.730000
						CHANNELS 3 Zrotation Yrotation Xrotation
						JOINT LeftForeArm
						{
							OFFSET 5.450000 0.000000 0.000000
							CHANNELS 3 Zrotation Yrotation Xrotation
							JOINT LeftHand
							{
								OFFSET 3.450000 0.000000 0.000000
								CHANNELS 3 Zrotation Yrotation Xrotation
								JOINT LeftHandIndex1
								{
									OFFSET 0.750000 0.000000 0.000000
									CHANNELS 3 Zrotation Yrotation Xrotation
									End Site
									{
										OFFSET 0.000000 0.000000 0.000000
									}
								}
							}
						}
					}
				}
				JOINT RightShoulder
				{
					OFFSET 0.000000 0.000000 0.000000
					CHANNELS 3 Zrotation Yrotation Xrotation
					JOINT RightArm
					{
						OFFSET -2.700000 1.550000 -0.730000
						CHANNELS 3 Zrotation Yrotation Xrotation
						JOINT RightForeArm
						{
							OFFSET -5.450000 0.000000 0.000000
							CHANNELS 3 Zrotation Yrotation Xrotation
							JOINT RightHand
							{
								OFFSET -3.450000 0.000000 0.000000
								CHANNELS 3 Zrotation Yrotation Xrotation
								JOINT RightHandIndex1
								{
									OFFSET -0.750000 0.000000 0.000000
									CHANNELS 3 Zrotation Yrotation Xrotation
									End Site
									{
										OFFSET 0.000000 0.000000 0.000000
									}
								}
							}
						}
					}
				}
			}
		}
	}
}
MOTION
Frames: 9
Frame Time: 0.016667
-0.756880 16.459780 -8.045100 -1.141109 31.594214 6.953763 -15.338746 10.681925 5.187029 1.064682 -3.442378 -50.136186 -23.319852 19.112187 35.737651 0.853470 9.325977 1.261309 -0.181090 0.222420 -0.584060 18.407203 -10.075649 3.253164 9.941537 0.145419 -13.227185 7.080305 -2.338094 -4.038248 -0.028979 -2.815172 3.052769 0.207470 0.756180 0.090480 -3.782126 0.473614 -9.626476 2.388049 6.351162 19.452069 -10.481427 9.786961 19.846567 2.436720 -7.163467 -23.855662 -9.899977 -10.887012 24.924795 2.882430 -16.144600 -9.928000 7.934610 -8.463842 1.443115 10.276039 -1.210843 -6.917003 30.358988 11.604422 0.778157 -5.023059 2.987949 -0.246580 0.201480 -0.156500 0.181270 -11.132929 24.152270 31.019913 -86.147306 47.576713 -142.274119 -3.842796 47.940301 -15.476219 7.082501 -2.043303 -0.107300 0.482770 0.310060 0.589820 
-0.770130 16.449900 -8.052980 -1.616178 31.153112 6.924313 -15.294830 10.609551 5.095138 0.684966 -3.591446 -49.933424 -23.372630 19.215274 36.257801 0.842873 9.393086 1.195133 -0.088150 0.353100 -0.558240 18.493417 -10.044398 3.211850 11.058042 -0.017158 -13.200938 5.758125 -2.293823 -4.468293 -0.104720 -2.779322 3.010453 0.275700 0.715450 0.158130 -3.943723 0.608288 -9.361564 3.176178 5.986596 18.547249 -11.295764 9.734681 21.053103 2.536682 -7.080394 -23.075572 -9.709783 -10.663565 24.006093 3.606550 -15.889860 -13.071450 7.873693 -7.955669 0.981977 10.316166 -2.384960 -6.683184 29.313829 12.081492 0.680583 -5.015880 2.957071 -0.221940 0.175420 -0.078760 0.194730 -11.229255 23.278372 31.459513 -87.487793 47.770524 -139.943588 -5.690654 47.654963 -15.227148 6.458481 -2.430687 -0.043100 0.473880 0.304710 0.606690 
-0.804420 16.443360 -8.038600 -1.506105 29.155448 7.593485 -15.270370 10.603620 5.001853 -0.051489 -3.552497 -49.497016 -24.296752 19.920104 36.289826 0.898811 9.592806 1.178682 -0.149220 0.261850 -0.601270 18.533861 -10.028662 3.171732 10.978643 0.119192 -13.618571 6.249038 -2.322657 -4.111167 -0.024087 -2.833090 3.026966 0.257090 0.780570 0.106280 -3.974652 0.690982 -9.121360 2.129632 6.496323 16.809771 -11.154022 10.131029 22.629073 2.020226 -7.480722 -23.239834 -10.516668 -9.422699 23.969382 3.093490 -15.534320 -9.124840 8.221620 -8.743152 1.474946 8.384657 -2.446284 -6.644129 28.043538 13.440729 0.904365 -5.118965 2.898877 -0.285060 0.227720 -0.194920 0.187990 -10.169088 23.875221 32.635665 -89.192288 48.368294 -138.448748 -8.356053 46.299481 -14.758040 5.816690 -2.808360 -0.101840 0.466850 0.327410 0.596690 
-0.838790 16.416230 -8.027300 -2.776226 28.467873 7.787891 -15.260690 10.566480 5.142779 -0.345893 -4.434691 -49.636381 -24.488138 20.036063 37.221102 0.823818 9.820285 1.092865 -0.125220 0.239050 -0.505980 18.538784 -9.945135 3.235749 11.744336 0.516812 -14.247498 8.217750 -2.495513 -3.215968 -0.041487 -2.748742 3.019303 0.279480 0.762800 0.111400 -4.011738 0.568729 -9.283026 2.388020 5.474125 17.558322 -12.525871 9.491488 21.718398 1.744179 -6.102392 -23.313622 -8.493537 -10.013106 23.906210 2.284310 -15.158180 -11.228260 5.784298 -7.767390 0.831385 12.027970 -2.938491 -5.494943 24.145997 11.970654 0.218839 -5.102482 2.668343 -0.189460 0.214480 -0.163050 0.147650 -7.766924 21.291432 33.495256 -89.004104 52.114281 -137.998583 -1.953656 47.671902 -14.010081 5.790134 -2.769367 -0.159110 0.535920 0.359830 0.525460 
-0.877610 16.382840 -8.002420 -3.276834 27.510337 8.883849 -15.291755 10.542351 5.294650 -1.223455 -5.562166 -49.514842 -26.617291 20.277462 36.432674 0.794909 9.925108 1.076221 -0.125940 0.254520 -0.512040 18.504036 -9.823990 3.260552 11.952956 1.142784 -15.512576 10.725702 -2.781662 -1.264708 -0.020301 -2.708493 3.032791 0.333480 0.818040 0.090870 -3.900100 0.326674 -9.399709 1.154998 4.911530 17.216655 -13.109876 8.813028 20.972113 1.238733 -5.055965 -23.201812 -6.820749 -9.852838 23.323735 2.379880 -14.756140 -12.426100 5.024061 -6.715002 0.196990 11.151123 -4.202042 -4.310378 22.354819 9.411661 -0.235055 -5.043026 2.555395 -0.163300 0.246580 -0.174210 0.150110 -6.563342 18.907933 33.270756 -91.178790 57.095295 -139.807138 2.129871 48.297855 -13.005473 5.644410 -2.557183 -0.220810 0.637160 0.394060 0.511760 
-0.908630 16.362490 -7.973250 -3.467246 26.080389 9.823090 -15.314095 10.634923 5.333529 -2.838882 -6.436799 -48.827120 -25.763353 19.625697 36.600209 0.707001 9.702130 1.125494 -0.064930 0.334500 -0.457220 18.448551 -9.826411 3.353103 12.385165 1.489071 -16.471925 11.516334 -2.911779 -0.157529 -0.029885 -2.633374 3.027844 0.396180 0.795330 0.090130 -3.793847 0.131498 -9.573406 0.035699 4.502850 17.800021 -14.617887 8.567131 19.217903 1.005011 -4.357089 -23.403495 -5.642751 -9.726432 23.209140 2.248870 -14.184780 -13.870230 3.272189 -6.606338 -0.752917 12.102918 -6.129501 -4.648314 21.210886 12.261556 -0.067955 -5.084605 2.510411 -0.136670 0.237290 -0.138870 0.153630 -4.979644 17.235846 32.418575 -95.268143 63.237217 -145.196437 4.403987 46.594458 -11.128846 5.561578 -2.188706 -0.225950 0.671940 0.373350 0.496200 
-0.932200 16.352450 -7.952170 -3.866421 25.908386 10.421474 -15.167320 9.975770 5.188006 -4.571478 -7.456738 -47.529921 -23.099743 18.238391 37.431067 0.582412 9.272047 1.276365 -0.060890 0.331960 -0.444090 18.638888 -10.451738 3.436807 13.578218 1.268564 -17.254386 10.265332 -2.977612 -0.230020 -0.069540 -2.624483 3.023552 0.389690 0.777870 0.080400 -4.281462 2.395850 -9.580127 1.104296 7.246213 20.015332 -13.442091 9.902674 7.896203 -0.457768 -4.619787 -16.266159 -5.741444 -9.418098 27.165023 2.664670 -14.035550 -14.628280 0.598749 -17.152153 4.081593 10.138935 -10.253402 -5.092784 22.081203 14.842567 0.255313 -4.920952 2.580835 -0.097920 0.213000 -0.117710 0.150010 -0.360572 27.339914 8.635110 39.955488 70.167150 9.219675 -15.262061 40.084591 -8.161433 3.035929 -0.641546 -0.234870 0.685930 0.372180 0.484580 
-0.951450 16.343540 -7.941190 -5.160840 24.483315 10.282568 -14.995738 10.007466 5.017801 -5.892588 -7.710828 -46.155224 -19.101651 16.237642 37.923190 0.415807 8.603173 1.471217 -0.034650 0.365100 -0.424400 18.784239 -10.634353 3.511321 15.605151 1.001678 -17.323116 8.214145 -2.942295 -0.120821 -0.077792 -2.501679 3.075094 0.394190 0.743370 0.086650 -4.764265 2.605916 -9.489650 3.150762 6.534816 17.115802 -15.107487 11.281227 11.636790 -0.264734 -5.277505 -14.600705 -6.696633 -9.492345 26.141182 2.579020 -14.132390 -15.668350 -0.277197 -19.785606 5.391527 8.998312 -10.015782 -4.779251 20.077262 13.437544 -0.203529 -4.867720 2.556500 -0.071150 0.184700 -0.077200 0.155680 1.059160 31.345133 9.173395 33.908421 62.247040 6.025936 -14.679881 41.759344 -6.885565 2.246804 -0.755134 -0.215430 0.685080 0.353930 0.485190 
-0.965260 16.346110 -7.931850 -5.905770 23.041631 10.132520 -14.885897 10.135853 4.768434 -8.284988 -7.885191 -43.867522 -14.733167 13.910502 37.970845 0.244271 7.739100 1.759425 -0.000400 0.451330 -0.429480 18.892882 -10.711647 3.537300 16.838977 0.753018 -17.223273 6.837541 -2.912342 0.072954 -0.089022 -2.417786 3.122735 0.435230 0.729980 0.048230 -5.083782 2.561152 -9.223348 4.534389 5.175674 16.311179 -17.607757 11.740017 13.256615 -0.396424 -6.645447 -14.662167 -8.966543 -8.647150 25.515226 3.336670 -14.088370 -17.268130 -0.431516 -20.191603 5.241490 6.279599 -10.907558 -4.625458 20.188034 12.206766 -0.399226 -4.783569 2.525265 -0.068400 0.153580 -0.045420 0.176690 1.743860 32.613790 10.663463 34.090892 59.954352 4.384915 -12.242919 40.295486 -5.890203 2.088957 -0.911278 -0.203230 0.738100 0.327040 0.511370 
